<?xml version="1.0" encoding="utf-8"?>
<!-- Generator: Adobe Illustrator 27.0.0, SVG Export Plug-In . SVG Version: 6.00 Build 0)  -->
<svg version="1.1" id="efhfbaga" xmlns="http://www.w3.org/2000/svg" xmlns:xlink="http://www.w3.org/1999/xlink" x="0px" y="0px"
	 viewBox="0 0 369.9 123.4" style="enable-background:new 0 0 369.9 123.4;" xml:space="preserve">
<style type="text/css">
	.st0{fill:#7E70E9;}
</style>
<g id="SvgjsG1012" transform="matrix(35.11447762548249,0,0,35.11447762548249,-50.07324506045026,-26.09005585435634)">
	<g>
		<g>
			<g>
				<circle class="st0" cx="2.8" cy="4.1" r="0.2"/>
			</g>
		</g>
		<g>
			<g>
				<circle class="st0" cx="3.2" cy="3.8" r="0.2"/>
			</g>
		</g>
		<g>
			<g>
				<circle class="st0" cx="3.9" cy="2.5" r="0.2"/>
			</g>
		</g>
		<g>
			<g>
				<circle class="st0" cx="3.6" cy="2.1" r="0.2"/>
			</g>
		</g>
		<g>
			<g>
				<circle class="st0" cx="3.2" cy="1.2" r="0.2"/>
			</g>
		</g>
		<g>
			<g>
				<circle class="st0" cx="2.8" cy="0.9" r="0.2"/>
			</g>
		</g>
		<g>
			<g>
				<circle class="st0" cx="1.6" cy="1.3" r="0.2"/>
			</g>
		</g>
		<g>
			<g>
				<circle class="st0" cx="1.7" cy="2.5" r="0.2"/>
			</g>
		</g>
		<g>
			<g>
				<circle class="st0" cx="1.7" cy="3.2" r="0.2"/>
			</g>
		</g>
		<g>
			<g>
				<circle class="st0" cx="2.2" cy="3.7" r="0.2"/>
			</g>
		</g>
		<g>
			<g>
				<path class="st0" d="M2.5,2.6c0.1-0.1,0.2-0.1,0.2,0c0.1,0.1,0.1,0.2,0,0.2c-0.1,0.1-0.2,0.1-0.2,0C2.4,2.7,2.4,2.6,2.5,2.6z"/>
			</g>
		</g>
		<g>
			<g>
				<polygon class="st0" points="2.8,4.1 2.7,4.1 2.7,3.6 2,3 2,2.2 2.7,1.5 2.7,0.9 2.8,0.9 2.8,1.6 2.2,2.2 2.2,2.9 2.8,3.5 				
					"/>
			</g>
		</g>
		<g>
			<g>
				<polygon class="st0" points="2.8,3.6 2.7,3.5 3.1,3.1 3.1,2.5 2.7,2.1 3.1,1.7 3.1,1.2 3.3,1.2 3.3,1.8 2.9,2.1 3.3,2.5 
					3.3,3.2 				"/>
			</g>
		</g>
		<g>
			<g>
				<rect x="2.8" y="2.6" transform="matrix(0.7071 -0.7071 0.7071 0.7071 -1.2719 2.8776)" class="st0" width="0.1" height="0.7"/>
			</g>
		</g>
		<g>
			<g>
				<polygon class="st0" points="2.1,2.2 1.5,1.7 1.5,1.3 1.7,1.3 1.7,1.6 2.2,2.1 				"/>
			</g>
		</g>
		<g>
			<g>
				<rect x="3.1" y="2.2" transform="matrix(0.7137 -0.7005 0.7005 0.7137 -0.6256 3.023)" class="st0" width="0.6" height="0.1"/>
			</g>
		</g>
		<g>
			<g>
				<rect x="1.8" y="2.4" transform="matrix(0.7055 -0.7087 0.7087 0.7055 -1.3735 2.1536)" class="st0" width="0.2" height="0.6"/>
			</g>
		</g>
		<g>
			<g>
				<path class="st0" d="M1.7,3.5"/>
			</g>
		</g>
		<g>
			<g>
				<polygon class="st0" points="3.3,3.8 3.2,3.7 3.5,3.4 3.5,2.7 3.8,2.4 3.9,2.5 3.7,2.8 3.7,3.4 				"/>
			</g>
		</g>
		<g>
			<g>
				<rect x="1.9" y="3.1" transform="matrix(0.7071 -0.7071 0.7071 0.7071 -1.9025 2.3937)" class="st0" width="0.2" height="0.7"/>
			</g>
		</g>
	</g>
</g>
<g id="SvgjsG1013" transform="matrix(2.409330137078076,0,0,2.409330137078076,110.55440214752478,-8.815590829078715)">
	<path class="st0" d="M3.6,33V22.3h-3v-1.6h3V14L7.9,12v8.7h2.9v1.6H7.9v10.4c0,1.6,0.6,2.9,1.4,3.9c0.4,0.6,1,1,1.5,1.4v2.2
		c-0.9,0-1.9-0.2-2.9-0.6C5.6,38.6,3.6,36.6,3.6,33z M13.2,40v-1c1.4-1.5,2-3.3,2-5.3v-6.6c0-2-0.7-3.8-2-5.2v-1.2h6.4v2.1
		c1.2-1.2,3.6-2.2,5.2-2.2c1.7,0,2.9,0.6,2.9,0.6l-0.8,3.6c0,0-1.8-1.5-4-1.5c-2.9,0-3.3,2-3.3,2.5v7.8c0,2,0.8,3.8,2,5.3v1H13.2z
		 M40,40v-1.2c1.3-1.4,2.1-3.2,2.1-5.2V27c0-1.9-0.7-3.8-2.1-5.2v-1.2h5.4c-0.3-5.4-5.7-6.5-8.7-6.5H35c0.4,0.5,0.6,1.2,0.6,1.8
		c0,1.5-1.2,2.7-2.8,2.7c-1.5,0-2.8-1.2-2.8-2.7c0-1.6,1.3-2.9,2.8-2.9h3.1c1.8,0,3.9,0.3,5.2,0.8c2.4,0.9,5.3,3.1,5.3,6.7v2.2
		c1.2-0.8,2.8-1.2,4.3-1.2c4.6,0,7.2,2.9,7.2,9.8v2.3c0,1.9,0.8,3.8,2,5.2V40h-8.5v-1.2c1.4-1.4,2.1-3.2,2.1-5.2v-4.8
		c0-2.8-2.2-5.6-4.7-5.6c-1.3,0-2.5,0.9-2.5,2.3v8.1c0,1.9,0.7,3.8,2.1,5.2V40H40L40,40z M29.7,40v-1.2c1.2-1.4,1.8-3.2,1.8-5.2V27
		c0-1.9-0.7-3.8-1.8-5.2v-1.1h5.6v13c0,1.9,0.6,3.8,1.8,5.2V40C37.1,40,29.7,40,29.7,40z M62.3,40v-1.1c1.1-1.4,1.7-3.3,1.7-5.2V27
		c0-2-0.6-3.8-1.7-5.2v-1.1h5.5v13c0,1.9,0.6,3.8,1.8,5.2V40C69.6,40,62.3,40,62.3,40z M65.4,18.9c-1.5,0-2.8-1.3-2.8-2.8
		c0-1.6,1.2-2.8,2.8-2.8c1.6,0,2.8,1.2,2.8,2.8C68.2,17.6,66.9,18.9,65.4,18.9z M74,33V22.3h-3v-1.6h3V14l4.4-2.1v8.7h2.9v1.6h-2.9
		v10.4c0,1.6,0.6,2.9,1.4,3.9c0.4,0.6,1,1,1.5,1.4v2.2c-0.9,0-1.9-0.2-2.9-0.6C76,38.6,74,36.6,74,33z M82.8,43.7V40h1.3l2.6,2.6
		c0,0,0.8,0.9,1.9,0.9c0.6,0,1.2-0.3,1.8-1l5-6.6L87.7,24c-0.2-0.3-0.4-0.5-0.6-0.6l-2.4-1.6v-1.1h8.1v1.1L92.6,22
		c-0.6,0.7-0.8,1.8-0.2,2.7l5,8.1l5.4-8c0.2-0.4,0.4-0.8,0.4-1.2c0-0.7-0.3-1.3-0.8-1.7v-1.2h5.2v1.2l-1.1,0.7
		c-0.2,0.2-0.4,0.4-0.6,0.6L91.4,43.5c0,0-2.3,2.7-4.5,2.7C85.7,46.2,84.3,45.6,82.8,43.7L82.8,43.7z"/>
</g>
</svg>
