<svg xmlns="http://www.w3.org/2000/svg" version="1.1" width="1000" height="623" viewBox="0 0 1000 623">
    <g transform="matrix(1,0,0,1,-0.6060606060606233,0.2522267206477409)">
        <svg viewBox="0 0 396 247" data-background-color="#ffffff" preserveAspectRatio="xMidYMid meet" height="623"
             width="1000" xmlns="http://www.w3.org/2000/svg">
            <defs></defs>
            <g id="tight-bounds" transform="matrix(1,0,0,1,0.2400000000000091,-0.09999999999999432)">
                <svg viewBox="0 0 395.52 247.2" height="247.2" width="395.52">
                    <g>
                        <svg></svg>
                    </g>
                    <g>
                        <svg viewBox="0 0 395.52 247.2" height="247.2" width="395.52">
                            <g transform="matrix(1,0,0,1,75.54432,90.73727760214591)">
                                <svg viewBox="0 0 244.43135999999998 65.72544479570817" height="65.72544479570817"
                                     width="244.43135999999998">
                                    <g>
                                        <svg viewBox="0 0 413.7226498211022 111.24638500375303"
                                             height="65.72544479570817" width="244.43135999999998">
                                            <g>
                                                <svg viewBox="0 0 244.43135999999998 111.24638500375303"
                                                     height="111.24638500375303" width="244.43135999999998">
                                                    <g>
                                                        <svg viewBox="0 0 244.43135999999998 111.24638500375303"
                                                             height="111.24638500375303" width="244.43135999999998">
                                                            <g>
                                                                <svg viewBox="0 0 244.43135999999998 77.23237152909337"
                                                                     height="77.23237152909337"
                                                                     width="244.43135999999998">
                                                                    <g transform="matrix(1,0,0,1,0,0)">
                                                                        <svg width="244.43135999999998"
                                                                             viewBox="2.8499999046325684 -33.650001525878906 147.77999877929688 46.70000076293945"
                                                                             height="77.23237152909337"
                                                                             data-palette-color="#8789fe">
                                                                            <path d="M13.6-3Q13.2-1.25 12.38-0.3 11.55 0.65 9.7 0.65L9.7 0.65Q8.15 0.65 7.43 0.13 6.7-0.4 6.7-1.65L6.7-1.65Q6.7-2.2 6.85-2.7L6.85-2.7 12.95-26.9Q12.9-26.9 9.7-26.55L9.7-26.55Q5.85-26.25 4.9-26.05L4.9-26.05Q3.9-26.4 3.38-27.13 2.85-27.85 2.85-28.85L2.85-28.85Q2.85-29.65 3.43-30.38 4-31.1 4.8-31.45L4.8-31.45Q7.3-31.95 11.8-32.3 16.3-32.65 23.35-33.05L23.35-33.05Q26.95-33.2 28.2-33.35L28.2-33.35Q29-33 29.58-32.27 30.15-31.55 30.15-30.75L30.15-30.75Q30.15-29.85 29.25-29 28.35-28.15 27.2-27.8L27.2-27.8 18.45-27.35Q19-27.15 19-26L19-26Q19-25.4 18.9-25.1L18.9-25.1Q18.05-21.3 16.57-15.25 15.1-9.2 14.6-7.05L14.6-7.05Q14.3-5.8 14.05-4.8 13.8-3.8 13.6-3L13.6-3ZM34.6-1.9Q34.55-1.6 34.37-0.73 34.2 0.15 33.52 0.5 32.85 0.85 31.4 0.85L31.4 0.85Q29.75 0.85 29 0.5 28.25 0.15 28.25-1L28.25-1 30.65-10.55Q32.65-18.8 33.3-21.05L33.3-21.05 32.05-22.55Q31.9-22.7 31.9-22.9L31.9-22.9Q31.9-23.4 33-23.73 34.1-24.05 36.05-24.05L36.05-24.05Q37.8-24.05 38.4-23.08 39-22.1 39.15-20.55L39.15-20.55 38.8-19.25Q40.4-21.2 42.52-22.48 44.65-23.75 46.3-23.75L46.3-23.75Q48.45-23.75 49.65-23 50.85-22.25 50.85-21.05L50.85-21.05Q50.85-20 50.12-18.88 49.4-17.75 48.3-16.98 47.2-16.2 46.15-16.1L46.15-16.1Q45.15-16.1 44.8-16.35 44.45-16.6 44.45-17.1L44.45-17.1 44.75-18.75Q40.75-17.65 37.5-13.45L37.5-13.45 34.6-1.9ZM55.05-29.7Q55.05-31.25 56.02-32.45 57-33.65 58.75-33.65L58.75-33.65Q60.59-33.65 61.97-32.5 63.34-31.35 63.34-29.9L63.34-29.9Q63.34-28.45 61.95-27.4 60.55-26.35 58.7-26.35L58.7-26.35Q56.9-26.35 55.97-27.28 55.05-28.2 55.05-29.7L55.05-29.7ZM60.3-20.85Q57.65-10.05 56.25-4.6L56.25-4.6Q56.05-3.8 56.05-2.85L56.05-2.85 56.09-1.45Q56.09-0.6 55.57-0.25 55.05 0.1 53.34 0.15L53.34 0.15Q51.7 0.15 50.84-0.2 50-0.55 50-1.7L50-1.7Q50-2.25 51.27-7.55 52.55-12.85 54.75-21.35L54.75-21.35 53.59-22.85Q53.45-23 53.45-23.2L53.45-23.2Q53.45-23.7 54.55-24.03 55.65-24.35 57.59-24.35L57.59-24.35Q59.3-24.35 59.77-23.38 60.25-22.4 60.3-20.85L60.3-20.85ZM66.24-22.85Q66.09-23 66.09-23.2L66.09-23.2Q66.09-23.7 67.19-24.03 68.29-24.35 70.24-24.35L70.24-24.35Q72.04-24.35 72.89-23.43 73.74-22.5 73.89-21.2L73.89-21.2 72.99-17.95Q74.04-19.4 75.94-20.73 77.84-22.05 79.79-22.85 81.74-23.65 82.99-23.65L82.99-23.65Q85.64-23.65 86.84-22.68 88.04-21.7 88.04-19.6L88.04-19.6Q85.09-11.9 84.14-3L84.14-3 84.84-0.55Q84.24 0.6 83.17 1.28 82.09 1.95 80.04 1.95L80.04 1.95Q78.84 1.95 78.29 1.15 77.74 0.35 77.74-0.85L77.74-0.85Q77.74-4.2 78.72-8.22 79.69-12.25 80.99-16.45L80.99-16.45Q81.49-18.05 81.49-18.1L81.49-18.1Q81.49-18.8 80.69-18.8L80.69-18.8Q79.59-18.8 77.37-17.25 75.14-15.7 72.79-12.03 70.44-8.35 68.99-2.4L68.99-2.4Q68.89-2.1 68.74-1.3 68.59-0.5 67.94-0.18 67.29 0.15 65.84 0.15L65.84 0.15Q64.19 0.15 63.42-0.2 62.64-0.55 62.64-1.7L62.64-1.7Q62.79-2.4 63.09-3.4L63.09-3.4Q65.99-15.05 67.54-21.35L67.54-21.35 66.24-22.85ZM95.79-29.7Q95.79-31.25 96.77-32.45 97.74-33.65 99.49-33.65L99.49-33.65Q101.34-33.65 102.72-32.5 104.09-31.35 104.09-29.9L104.09-29.9Q104.09-28.45 102.69-27.4 101.29-26.35 99.44-26.35L99.44-26.35Q97.64-26.35 96.72-27.28 95.79-28.2 95.79-29.7L95.79-29.7ZM101.04-20.85Q98.39-10.05 96.99-4.6L96.99-4.6Q96.79-3.8 96.79-2.85L96.79-2.85 96.84-1.45Q96.84-0.6 96.32-0.25 95.79 0.1 94.09 0.15L94.09 0.15Q92.44 0.15 91.59-0.2 90.74-0.55 90.74-1.7L90.74-1.7Q90.74-2.25 92.02-7.55 93.29-12.85 95.49-21.35L95.49-21.35 94.34-22.85Q94.19-23 94.19-23.2L94.19-23.2Q94.19-23.7 95.29-24.03 96.39-24.35 98.34-24.35L98.34-24.35Q100.04-24.35 100.52-23.38 100.99-22.4 101.04-20.85L101.04-20.85ZM114.34-18.1L111.19-5.5Q111.19-4.35 111.79-3.68 112.39-3 113.49-3L113.49-3Q114.99-3 115.96-3.88 116.94-4.75 118.04-6.35L118.04-6.35Q118.84-7.5 119.34-8 119.84-8.5 120.49-8.5L120.49-8.5Q121.79-8.5 122.34-8.18 122.89-7.85 122.89-6.85L122.89-6.85Q122.89-6.4 122.79-5.78 122.69-5.15 122.54-4.85L122.54-4.85Q121.34-2.3 118.61-0.45 115.89 1.4 112.44 1.4L112.44 1.4Q108.99 1.4 107.24-0.28 105.49-1.95 105.49-5.05L105.49-5.05Q105.49-5.5 105.94-7.4 106.39-9.3 107.09-11.95L107.09-11.95 108.49-17.65 105.44-17.4Q104.84-17.4 104.54-17.85 104.24-18.3 104.24-18.95L104.24-18.95Q104.24-20.2 105.14-21.45L105.14-21.45Q105.24-21.6 106.14-21.75 107.04-21.9 108.34-22.05L108.34-22.05 109.69-22.2 111.39-29.5Q111.89-30.8 112.91-31.53 113.94-32.25 114.84-32.25L114.84-32.25Q115.84-32.25 116.54-31.65 117.24-31.05 117.29-30.25L117.29-30.25 115.49-22.75Q117.44-23 119.11-23.18 120.79-23.35 121.74-23.35L121.74-23.35Q123.64-23.35 123.64-21.15L123.64-21.15Q123.64-20.3 122.91-19.63 122.19-18.95 121.34-18.8L121.34-18.8 114.34-18.1ZM139.69-2.1Q137.99-0.5 136.38 0.28 134.78 1.05 132.78 1.05L132.78 1.05Q129.49 1.05 127.71-1 125.94-3.05 125.94-6.45L125.94-6.45Q125.94-7.45 126.23-8.65L126.23-8.65 129.59-21.7Q129.88-22.8 130.66-23.33 131.44-23.85 133.19-23.85L133.19-23.85Q135.78-23.85 135.78-22.4L135.78-22.4Q135.78-21.8 135.44-20.5L135.44-20.5 132.09-7.1Q131.94-6.5 131.94-5.9L131.94-5.9Q131.94-4.85 132.49-4.2 133.03-3.55 134.24-3.55L134.24-3.55Q135.78-3.55 137.59-4.45 139.38-5.35 140.63-6.65L140.63-6.65 141.59-10.6Q142.53-14.6 143.78-19.25L143.78-19.25Q144.34-21.25 145.21-22.53 146.09-23.8 147.99-23.8L147.99-23.8Q150.63-23.8 150.63-22.2L150.63-22.2Q150.63-21.95 150.51-21.58 150.38-21.2 150.34-20.95L150.34-20.95 148.69-14.1Q146.09-3.2 145.28-0.15L145.28-0.15Q143.99 4.85 142.34 7.7 140.69 10.55 138.21 11.8 135.74 13.05 131.88 13.05L131.88 13.05Q129.44 13.05 127.86 12.35 126.28 11.65 125.56 10.65 124.84 9.65 124.84 8.8L124.84 8.8Q124.84 6.35 127.53 6.35L127.53 6.35Q128.28 6.35 128.76 6.65 129.24 6.95 129.74 7.5L129.74 7.5Q130.49 8.2 131.11 8.55 131.74 8.9 132.84 8.9L132.84 8.9Q133.69 8.9 134.74 8.2 135.78 7.5 136.78 6 137.78 4.5 138.44 2.25L138.44 2.25 139.69-2.1Z"
                                                                                  opacity="1"
                                                                                  transform="matrix(1,0,0,1,0,0)"
                                                                                  fill="#8789fe"
                                                                                  class="undefined-text-0"
                                                                                  data-fill-palette-color="primary"
                                                                                  id="text-0"></path>
                                                                        </svg>
                                                                    </g>
                                                                </svg>
                                                            </g>
                                                            <g transform="matrix(1,0,0,1,100.925708544,95.46508087019562)">
                                                                <svg viewBox="0 0 143.50565145599998 15.78130413355742"
                                                                     height="15.78130413355742"
                                                                     width="143.50565145599998">
                                                                    <g transform="matrix(1,0,0,1,0,0)">
                                                                        <svg width="143.50565145599998"
                                                                             viewBox="1.7000000476837158 -38.099998474121094 481.8999938964844 53"
                                                                             height="15.78130413355742"
                                                                             data-palette-color="#8789fe">
                                                                            <path d="M30.4 0.1L30.4 0.1Q27.6 0.1 26.18-1.73 24.75-3.55 24.25-8.55L24.25-8.55Q23.95-11.15 23.65-15.3L23.65-15.3Q20.15-14.25 16.6-13.1L16.6-13.1 14.9-8.4Q14.4-7.05 14.2-6.48 14-5.9 13.48-4.75 12.95-3.6 12.58-3.08 12.2-2.55 11.53-1.75 10.85-0.95 10.15-0.6L10.15-0.6Q8.35 0.3 6.3 0.3 4.25 0.3 2.98-1.18 1.7-2.65 1.7-4.8L1.7-4.8Q1.7-5.4 1.8-6.05L1.8-6.05Q2.45-10.85 11.65-14.8L11.65-14.8Q14.25-21.45 20.3-37.2L20.3-37.2Q21.9-38.1 24.35-38.1L24.35-38.1Q24.9-38.1 25.4-38.1 25.9-38.1 26.63-38.1 27.35-38.1 28.45-37.8L28.45-37.8Q28.5-35.45 30.75-8.65L30.75-8.65Q30.95-6.4 31.3-5.73 31.65-5.05 32.5-5.05L32.5-5.05Q33.9-5.05 36.23-6.95 38.55-8.85 40.4-11.7L40.4-11.7 41.8-8.3 40.6-6.7Q35.35 0.1 30.4 0.1ZM23.3-19L22.45-29.4 18.1-17.25Q21.6-18.45 23.3-19L23.3-19ZM9.9-10.45Q5.25-8.1 5.25-5.85L5.25-5.85Q5.25-4.25 6.45-4.25L6.45-4.25Q7.35-4.25 7.9-5.55L7.9-5.55Q8.55-6.95 9.9-10.45L9.9-10.45ZM50.8-24.05L50.8-24.05Q53.55-24.05 55.85-23.15L55.85-23.15Q57.4-24.1 59.1-24.1 60.8-24.1 61.8-23.65L61.8-23.65 60-9.55Q63.7-12.4 65.6-14.75L65.6-14.75 67.05-11.7Q64.2-8.7 59.45-5.3L59.45-5.3 58.1 5.15Q57.55 9.85 55.02 12.38 52.5 14.9 48.5 14.9L48.5 14.9Q46.2 14.9 44 13.4L44 13.4Q41.7 11.8 41.7 8.25L41.7 8.25Q41.7 3.9 45.85 0.3L45.85 0.3Q42.3 0.05 39.75-2.65 37.2-5.35 37.2-9.7L37.2-9.7Q37.2-16.25 41.05-20.15 44.9-24.05 50.8-24.05ZM51.55-20.15L51.55-20.15Q48.35-20.15 46.47-17.73 44.6-15.3 44.25-10.5L44.25-10.5Q44.2-10.05 44.2-9.65L44.2-9.65Q44.2-7.2 45.37-5.75 46.55-4.3 48.4-4.3L48.4-4.3Q51.55-4.3 53.15-8.7L53.15-8.7 54.4-19.55Q52.85-20.15 51.55-20.15ZM45.55 7.5L45.55 7.5Q45.55 8.85 46.32 9.63 47.1 10.4 48.1 10.4L48.1 10.4Q50.9 10.4 51.35 6.85L51.35 6.85 52.2-0.65Q45.55 3.3 45.55 7.5ZM78.2-5.6L78.2-5.6 79.4-16.75Q79.4-18.1 78.7-19 78-19.9 76.37-19.9 74.75-19.9 73.62-18.48 72.5-17.05 72.2-14.9L72.2-14.9Q70.4-1.2 70.3 0L70.3 0 63.55 0 66.3-23.55Q68.4-24.1 69.5-24.1L69.5-24.1Q72.85-24.1 73-21.65L73-21.65Q75.45-24.05 78.87-24.05 82.3-24.05 84.25-22.35 86.2-20.65 86.2-18.05L86.2-18.05Q86.2-17.35 85.9-15.4L85.9-15.4Q84.75-7.8 84.75-6.55L84.75-6.55Q84.75-4.25 86.3-4.25L86.3-4.25Q89.7-4.25 91.45-11.35L91.45-11.35Q93.15-9.55 93.5-8.5L93.5-8.5Q90.85 0.3 84.3 0.3L84.3 0.3Q81.2 0.3 79.7-1.6 78.2-3.5 78.2-5.6ZM102.99-24.05L102.99-24.05Q107.59-24.05 110.67-21.1 113.74-18.15 113.74-13.9L113.74-13.9Q113.74-7.45 109.97-3.58 106.19 0.3 100.84 0.3 95.49 0.3 92.37-2.75 89.24-5.8 89.24-10.3L89.24-10.3Q89.24-16.6 93.09-20.3L93.09-20.3Q96.99-24.05 102.99-24.05ZM102.02-20Q99.64-20 98.04-17.3 96.44-14.6 96.29-10.5L96.29-10.5Q96.29-7.6 97.47-5.7 98.64-3.8 101.04-3.8 103.44-3.8 105.07-6.45 106.69-9.1 106.69-12.5 106.69-15.9 105.54-17.9L105.54-17.9Q104.39-20 102.02-20ZM136.74-15.3L136.74-15.3Q140.69-12.4 140.69-8.45 140.69-4.5 137.59-2.1 134.49 0.3 129.79 0.3L129.79 0.3Q126.74 0.3 124.72-1.23 122.69-2.75 122.69-5 122.69-7.25 124.19-8.58 125.69-9.9 127.94-10.2L127.94-10.2Q126.89-8.7 126.89-7.33 126.89-5.95 127.84-5.1L127.84-5.1Q128.79-4.25 130.24-4.25 131.69-4.25 132.64-5.33 133.59-6.4 133.59-7.8L133.59-7.8Q133.59-10.1 131.44-11.9L131.44-11.9Q130.14-12.95 128.64-13.88 127.14-14.8 127.04-14.85L127.04-14.85Q126.84-15 126.64-15.1L126.64-15.1Q125.74-14.05 124.04-12.23 122.34-10.4 121.34-9.3L121.34-9.3Q118.54-6.25 118.19-4.2L118.19-4.2Q118.09-3.8 118.09-2.68 118.09-1.55 118.77-0.35 119.44 0.85 120.39 1.45 121.34 2.05 122.27 2.43 123.19 2.8 123.87 2.95 124.54 3.1 124.54 3.15L124.54 3.15Q124.54 3.5 123.44 3.95L123.44 3.95Q121.39 4.7 119.17 4.7 116.94 4.7 114.84 3.1L114.84 3.1Q111.99 0.9 111.99-2.75L111.99-2.75Q111.99-5 113.14-7.2L113.14-7.2Q115.19-11.1 122.74-17.9L122.74-17.9Q120.89-19.75 120.89-21.85 120.89-23.95 122.47-25.4 124.04-26.85 126.19-26.85L126.19-26.85Q128.14-26.85 129.59-25.3L129.59-25.3Q130.54-24.25 130.54-22.65 130.54-21.05 129.49-19.05L129.49-19.05Q134.84-16.65 136.74-15.3ZM125.89-20.95L125.89-20.95Q127.09-22.2 127.09-22.75L127.09-22.75Q127.09-24 125.99-24.1L125.99-24.1Q124.74-24.1 124.74-22.7L124.74-22.7Q124.74-21.85 125.89-20.95ZM152.94-34.8L152.94-34.8Q152.94-34.5 151.59-24.05L151.59-24.05 158.94-24.05 158.94-20.2 151.09-20.2 150.94-18.95Q156.79-14.05 156.79-8.25L156.79-8.25Q156.79-3.7 154.46-1.7 152.14 0.3 148.89 0.3 145.64 0.3 144.14-1.43 142.64-3.15 142.64-5.6L142.64-5.6Q142.64-6.15 142.74-6.8L142.74-6.8 144.29-20.1 144.09-20.2 140.04-20.2Q139.99-20.7 139.99-21.83 139.99-22.95 140.44-24.05L140.44-24.05 144.74-24.05 146.34-37.65Q147.39-38.05 149.14-38.05L149.14-38.05Q152.94-38.05 152.94-34.8ZM153.44-8.3L153.44-8.3Q153.44-11.75 150.44-15.1L150.44-15.1Q149.54-7.65 149.54-6.5L149.54-6.5Q149.54-4.25 150.99-4.25L150.99-4.25Q152.04-4.25 152.74-5.23 153.44-6.2 153.44-8.3ZM162.63-36.83Q163.78-38 165.44-38 167.09-38 168.26-36.83 169.44-35.65 169.44-34 169.44-32.35 168.26-31.2 167.09-30.05 165.44-30.05 163.78-30.05 162.63-31.2 161.49-32.35 161.49-34 161.49-35.65 162.63-36.83ZM160.59-22.15Q161.09-23.05 162.49-23.53 163.88-24 165.26-24 166.63-24 167.69-23.65L167.69-23.65Q165.74-8.6 165.74-8.45L165.74-8.45Q165.49-7.45 165.49-6.78 165.49-6.1 165.59-5.6L165.59-5.6Q165.78-4.3 167.41-4.3 169.03-4.3 170.41-6.43 171.78-8.55 172.49-11.25L172.49-11.25Q172.84-11.05 173.59-10.05 174.34-9.05 174.49-8.55L174.49-8.55Q173.49-4.55 171.09-2.1L171.09-2.1Q168.69 0.35 165.34 0.35 161.99 0.35 160.36-1.3 158.74-2.95 158.74-5.55L158.74-5.55Q158.74-6.1 158.78-6.7L158.78-6.7 160.59-22.15ZM186.03-16.95L186.03-16.95Q186.03-20.2 183.13-20.2L183.13-20.2Q180.98-20.2 179.28-17.75L179.28-17.75Q177.48-15.1 177.48-11.55 177.48-8 179.06-6.08 180.63-4.15 183.38-4.15L183.38-4.15Q186.68-4.15 190.36-6.85 194.03-9.55 196.28-13.55L196.28-13.55Q197.28-12.8 198.23-10.8L198.23-10.8Q196.78-7.9 192.83-4.3L192.83-4.3Q190.78-2.4 187.73-1.1L187.73-1.1Q184.43 0.3 181.13 0.3L181.13 0.3Q176.68 0.3 173.61-2.75 170.53-5.8 170.53-10.7L170.53-10.7Q170.53-16.65 174.53-20.35 178.53-24.05 183.48-24.05L183.48-24.05Q187.33-24.05 189.58-22.45 191.83-20.85 191.83-18.25L191.83-18.25Q191.83-16.55 190.63-15.3L190.63-15.3Q188.43-13.1 185.28-13.1L185.28-13.1Q186.03-15.6 186.03-16.95ZM233.58 0.1L233.58 0.1Q230.78 0.1 229.35-1.73 227.93-3.55 227.43-8.55L227.43-8.55Q227.13-11.15 226.83-15.3L226.83-15.3Q223.33-14.25 219.78-13.1L219.78-13.1 218.08-8.4Q217.58-7.05 217.38-6.48 217.18-5.9 216.65-4.75 216.13-3.6 215.75-3.08 215.38-2.55 214.7-1.75 214.03-0.95 213.33-0.6L213.33-0.6Q211.53 0.3 209.48 0.3 207.43 0.3 206.15-1.18 204.88-2.65 204.88-4.8L204.88-4.8Q204.88-5.4 204.98-6.05L204.98-6.05Q205.63-10.85 214.83-14.8L214.83-14.8Q217.43-21.45 223.48-37.2L223.48-37.2Q225.08-38.1 227.53-38.1L227.53-38.1Q228.08-38.1 228.58-38.1 229.08-38.1 229.8-38.1 230.53-38.1 231.63-37.8L231.63-37.8Q231.68-35.45 233.93-8.65L233.93-8.65Q234.13-6.4 234.48-5.73 234.83-5.05 235.68-5.05L235.68-5.05Q237.08-5.05 239.4-6.95 241.73-8.85 243.58-11.7L243.58-11.7 244.98-8.3 243.78-6.7Q238.53 0.1 233.58 0.1ZM226.48-19L225.63-29.4 221.28-17.25Q224.78-18.45 226.48-19L226.48-19ZM213.08-10.45Q208.43-8.1 208.43-5.85L208.43-5.85Q208.43-4.25 209.63-4.25L209.63-4.25Q210.53-4.25 211.08-5.55L211.08-5.55Q211.73-6.95 213.08-10.45L213.08-10.45ZM259.63-36.05Q259.98-36.9 261.2-37.48 262.43-38.05 264.15-38.05 265.88-38.05 266.73-37.55L266.73-37.55Q266.23-33.65 265.13-25.3L265.13-25.3Q262.82-7.85 262.82-6.08 262.82-4.3 264.32-4.3L264.32-4.3Q265.63-4.3 267.02-5.93 268.43-7.55 269.57-11.25L269.57-11.25Q270.98-9.9 271.52-8.3L271.52-8.3Q269.73-2.35 265.88-0.6L265.88-0.6Q264.13 0.25 262.57 0.25L262.57 0.25Q258.13 0.25 256.63-2.95L256.63-2.95Q254.03 0.3 249.97 0.3 245.93 0.3 243.15-2.45 240.38-5.2 240.38-9.7L240.38-9.7Q240.38-16.25 244.22-20.15 248.07-24.05 253.97-24.05L253.97-24.05Q254.13-24.05 254.28-24.05L254.28-24.05Q256.32-24.05 258.13-23.45L258.13-23.45 259.63-36.05ZM254.72-20.15L254.72-20.15Q251.53-20.15 249.65-17.73 247.78-15.3 247.43-10.5L247.43-10.5Q247.38-10.05 247.38-9.65L247.38-9.65Q247.38-7.2 248.55-5.75 249.72-4.3 251.57-4.3L251.57-4.3Q254.72-4.3 256.32-8.75L256.32-8.75 257.63-19.5Q255.97-20.15 254.72-20.15ZM288.47 0L282.02 0 283.92-16.6Q283.92-18 283.25-18.93 282.57-19.85 280.87-19.85 279.17-19.85 278.07-18.23 276.97-16.6 276.67-14.8L276.67-14.8Q274.92-2.35 274.72 0L274.72 0 268.02 0 270.77-23.5Q272.87-24.05 273.97-24.05L273.97-24.05Q277.12-24.05 277.42-21.95L277.42-21.95Q279.87-24.05 282.77-24.05L282.77-24.05Q288.57-24.05 290.17-20.6L290.17-20.6Q292.62-24.1 297.17-24.1L297.17-24.1Q300.52-24.1 302.47-22.38 304.42-20.65 304.42-18.05L304.42-18.05Q304.42-17.3 304.12-15.4L304.12-15.4Q302.97-7.9 302.97-6.6L302.97-6.6Q302.97-4.25 304.52-4.25L304.52-4.25Q305.82-4.25 307.3-5.98 308.77-7.7 309.67-11.3L309.67-11.3Q311.37-9.5 311.72-8.45L311.72-8.45Q309.12 0.25 302.52 0.25L302.52 0.25Q299.42 0.25 297.92-1.65 296.42-3.55 296.42-5.65L296.42-5.65 297.62-16.7Q297.62-18.05 296.92-18.95 296.22-19.85 294.7-19.85 293.17-19.85 292.02-18.7 290.87-17.55 290.42-15.75L290.42-15.75Q288.92-3.05 288.47 0L288.47 0ZM311.92-36.83Q313.07-38 314.72-38 316.37-38 317.54-36.83 318.72-35.65 318.72-34 318.72-32.35 317.54-31.2 316.37-30.05 314.72-30.05 313.07-30.05 311.92-31.2 310.77-32.35 310.77-34 310.77-35.65 311.92-36.83ZM309.87-22.15Q310.37-23.05 311.77-23.53 313.17-24 314.54-24 315.92-24 316.97-23.65L316.97-23.65Q315.02-8.6 315.02-8.45L315.02-8.45Q314.77-7.45 314.77-6.78 314.77-6.1 314.87-5.6L314.87-5.6Q315.07-4.3 316.69-4.3 318.32-4.3 319.69-6.43 321.07-8.55 321.77-11.25L321.77-11.25Q322.12-11.05 322.87-10.05 323.62-9.05 323.77-8.55L323.77-8.55Q322.77-4.55 320.37-2.1L320.37-2.1Q317.97 0.35 314.62 0.35 311.27 0.35 309.64-1.3 308.02-2.95 308.02-5.55L308.02-5.55Q308.02-6.1 308.07-6.7L308.07-6.7 309.87-22.15ZM333.92-5.6L333.92-5.6 335.12-16.75Q335.12-18.1 334.42-19 333.72-19.9 332.09-19.9 330.47-19.9 329.34-18.48 328.22-17.05 327.92-14.9L327.92-14.9Q326.12-1.2 326.02 0L326.02 0 319.27 0 322.02-23.55Q324.12-24.1 325.22-24.1L325.22-24.1Q328.57-24.1 328.72-21.65L328.72-21.65Q331.17-24.05 334.59-24.05 338.02-24.05 339.97-22.35 341.92-20.65 341.92-18.05L341.92-18.05Q341.92-17.35 341.62-15.4L341.62-15.4Q340.47-7.8 340.47-6.55L340.47-6.55Q340.47-4.25 342.02-4.25L342.02-4.25Q345.42-4.25 347.17-11.35L347.17-11.35Q348.87-9.55 349.22-8.5L349.22-8.5Q346.57 0.3 340.02 0.3L340.02 0.3Q336.92 0.3 335.42-1.6 333.92-3.5 333.92-5.6ZM355.91-27.25L355.91-27.25Q355.91-32.05 360.16-35.05 364.41-38.05 371.51-38.05L371.51-38.05Q375.76-38.05 378.96-37.08 382.16-36.1 383.86-34.4L383.86-34.4Q387.26-31.05 387.26-26.7 387.26-22.35 383.79-19.43 380.31-16.5 374.91-16.5L374.91-16.5Q374.31-16.5 373.11-16.6L373.11-16.6 373.56-20.25Q380.21-20.25 380.21-26.5L380.21-26.5Q380.21-29.4 377.76-31.4L377.76-31.4Q375.21-33.5 370.16-33.5L370.16-33.5Q365.11-33.5 362.16-30.9L362.16-30.9Q360.41-29.4 360.41-27.65L360.41-27.65Q360.41-24.35 364.36-23.9L364.36-23.9 363.76-20.2Q360.31-20.35 358.11-22.4 355.91-24.45 355.91-27.25ZM373.51-30.9L373.51-30.9 371.31-16.6Q377.66-13.55 377.66-7.6L377.66-7.6Q377.66-3.25 375.39-1.48 373.11 0.3 369.91 0.3 366.71 0.3 364.91-1.35 363.11-3 363.11-5.8L363.11-5.8Q363.11-6.45 363.16-6.8L363.16-6.8 366.16-29.95Q368.76-31.2 370.56-31.2 372.36-31.2 373.51-30.9ZM371.36-4.25L371.36-4.25Q372.56-4.25 373.44-5.1 374.31-5.95 374.31-7.95L374.31-7.95Q374.31-11.5 370.91-13.55L370.91-13.55Q370.11-7.7 370.11-6.53 370.11-5.35 370.49-4.8 370.86-4.25 371.36-4.25ZM409.81 0.25L409.81 0.25Q405.21 0.25 403.71-2.95L403.71-2.95Q401.11 0.3 397.03 0.3 392.96 0.3 390.18-2.45 387.41-5.2 387.41-9.7L387.41-9.7Q387.41-16.25 391.26-20.15 395.11-24.05 401.01-24.05L401.01-24.05Q401.16-24.05 401.31-24.05L401.31-24.05Q403.81-24.05 405.91-23.2L405.91-23.2Q407.26-24.05 409.18-24.05 411.11-24.05 411.96-23.55L411.96-23.55Q411.51-19.85 411.01-16.28 410.51-12.7 410.31-11.2L410.31-11.2Q409.86-7.8 409.86-6.3L409.86-6.3Q409.86-4.3 411.46-4.3L411.46-4.3Q412.71-4.3 414.11-5.98 415.51-7.65 416.56-11.25L416.56-11.25Q418.01-9.95 418.56-8.35L418.56-8.35Q417.11-3.6 414.66-1.68 412.21 0.25 409.81 0.25ZM401.76-20.15L401.76-20.15Q398.56-20.15 396.68-17.73 394.81-15.3 394.46-10.5L394.46-10.5Q394.41-10.05 394.41-9.65L394.41-9.65Q394.41-7.2 395.58-5.75 396.76-4.3 398.61-4.3L398.61-4.3Q401.76-4.3 403.36-8.75L403.36-8.75 404.56-19.55Q403.11-20.15 401.76-20.15ZM429.21-5.6L429.21-5.6 430.41-16.75Q430.41-18.1 429.71-19 429.01-19.9 427.38-19.9 425.76-19.9 424.63-18.48 423.51-17.05 423.21-14.9L423.21-14.9Q421.41-1.2 421.31 0L421.31 0 414.56 0 417.31-23.55Q419.41-24.1 420.51-24.1L420.51-24.1Q423.86-24.1 424.01-21.65L424.01-21.65Q426.46-24.05 429.88-24.05 433.31-24.05 435.26-22.35 437.21-20.65 437.21-18.05L437.21-18.05Q437.21-17.35 436.91-15.4L436.91-15.4Q435.76-7.8 435.76-6.55L435.76-6.55Q435.76-4.25 437.31-4.25L437.31-4.25Q440.71-4.25 442.46-11.35L442.46-11.35Q444.16-9.55 444.51-8.5L444.51-8.5Q441.86 0.3 435.31 0.3L435.31 0.3Q432.21 0.3 430.71-1.6 429.21-3.5 429.21-5.6ZM450.2-11.2Q453.3-11.85 454.83-13.7 456.35-15.55 456.35-17.28 456.35-19 455.43-19.63 454.5-20.25 453.4-20.25L453.4-20.25Q451.05-20.25 449.28-17.63 447.5-15 447.5-11.38 447.5-7.75 449.23-5.98 450.95-4.2 453.5-4.2L453.5-4.2Q457.25-4.2 460.7-6.8 464.15-9.4 466.3-13.6L466.3-13.6Q467.4-12.55 468.3-11L468.3-11Q466.65-7.25 462.45-3.65L462.45-3.65Q460.35-1.9 457.48-0.8 454.6 0.3 451.55 0.3L451.55 0.3Q446.55 0.3 443.65-2.75L443.65-2.75Q440.55-6.05 440.55-11.2 440.55-16.35 444.43-20.2 448.3-24.05 453.7-24.05L453.7-24.05Q457.55-24.05 459.95-22.38 462.35-20.7 462.4-17.85L462.4-17.85Q462.4-14 459.33-11.6 456.25-9.2 450.9-8.25L450.9-8.25 450.2-11.2ZM470.93 0.35Q467.85 0.35 466.1-1.38 464.35-3.1 464.35-6.1L464.35-6.1Q464.35-6.9 467.05-29.85L467.05-29.85Q467.75-35.75 470.8-37.3L470.8-37.3Q472.2-38.05 474.15-38.05L474.15-38.05Q480.75-38.05 480.75-31.95L480.75-31.95Q480.75-31.45 480.7-30.9L480.7-30.9Q480.2-24.2 472.3-17.25L472.3-17.25Q472.05-14.8 471.75-12.5L471.75-12.5Q471.15-7.35 471.15-6.8L471.15-6.8Q471.15-4.2 473.4-4.2L473.4-4.2Q475.85-4.2 477.98-7.03 480.1-9.85 481.25-14.25L481.25-14.25Q481.7-14.1 482.5-13.43 483.3-12.75 483.6-12.25L483.6-12.25Q482.8-8.1 480-4.3L480-4.3Q478.6-2.35 476.45-1.1L476.45-1.1Q474 0.35 470.93 0.35ZM473-23.75L472.85-22.25Q477.45-27.3 477.45-31.3L477.45-31.3Q477.45-33.7 475.65-33.7L475.65-33.7Q474.5-33.6 474.13-32.2 473.75-30.8 473.43-27.65 473.1-24.5 473-23.75L473-23.75Z"
                                                                                  opacity="1"
                                                                                  transform="matrix(1,0,0,1,0,0)"
                                                                                  fill="#8789fe"
                                                                                  class="undefined-text-1"
                                                                                  data-fill-palette-color="secondary"
                                                                                  id="text-1"></path>
                                                                        </svg>
                                                                    </g>
                                                                </svg>
                                                            </g>
                                                        </svg>
                                                    </g>
                                                </svg>
                                            </g>
                                            <g transform="matrix(1,0,0,1,262.6640693411022,2.6658740577385913)">
                                                <svg viewBox="0 0 151.05858048 105.91463688827585"
                                                     height="105.91463688827585" width="151.05858048">
                                                    <g>
                                                        <svg xmlns="http://www.w3.org/2000/svg" version="1.0" x="0"
                                                             y="0" viewBox="7 21 87 61"
                                                             enable-background="new 0 0 100 100" xml:space="preserve"
                                                             height="105.91463688827585" width="151.05858048"
                                                             class="icon-icon-0" data-fill-palette-color="accent"
                                                             id="icon-0"><g fill="#8789fe" data-fill-palette-color="accent"><path fill="#8789fe" d="M28.5 78h-4c-0.276 0-0.5-0.224-0.5-0.5v-5c0-0.276 0.224-0.5 0.5-0.5h4c0.276 0 0.5 0.224 0.5 0.5v5C29 77.776 28.776 78 28.5 78zM25 77h3v-4h-3V77z" data-fill-palette-color="accent"></path></g>
                                                            <g fill="#8789fe" data-fill-palette-color="accent"><path fill="#8789fe" d="M14.5 38h-3c-0.276 0-0.5-0.224-0.5-0.5v-4c0-0.276 0.224-0.5 0.5-0.5h3c0.276 0 0.5 0.224 0.5 0.5v4C15 37.776 14.776 38 14.5 38zM12 37h2v-3h-2V37z" data-fill-palette-color="accent"></path></g>
                                                            <g fill="#8789fe" data-fill-palette-color="accent"><path fill="#8789fe" d="M14.5 45h-3c-0.276 0-0.5-0.224-0.5-0.5v-4c0-0.276 0.224-0.5 0.5-0.5h3c0.276 0 0.5 0.224 0.5 0.5v4C15 44.776 14.776 45 14.5 45zM12 44h2v-3h-2V44z" data-fill-palette-color="accent"></path></g>
                                                            <g fill="#8789fe" data-fill-palette-color="accent"><path fill="#8789fe" d="M14.5 52h-3c-0.276 0-0.5-0.224-0.5-0.5v-4c0-0.276 0.224-0.5 0.5-0.5h3c0.276 0 0.5 0.224 0.5 0.5v4C15 51.776 14.776 52 14.5 52zM12 51h2v-3h-2V51z" data-fill-palette-color="accent"></path></g>
                                                            <g fill="#8789fe" data-fill-palette-color="accent"><path fill="#8789fe" d="M14.5 59h-3c-0.276 0-0.5-0.224-0.5-0.5v-4c0-0.276 0.224-0.5 0.5-0.5h3c0.276 0 0.5 0.224 0.5 0.5v4C15 58.776 14.776 59 14.5 59zM12 58h2v-3h-2V58z" data-fill-palette-color="accent"></path></g>
                                                            <g fill="#8789fe" data-fill-palette-color="accent"><path fill="#8789fe" d="M14.5 66h-3c-0.276 0-0.5-0.224-0.5-0.5v-4c0-0.276 0.224-0.5 0.5-0.5h3c0.276 0 0.5 0.224 0.5 0.5v4C15 65.776 14.776 66 14.5 66zM12 65h2v-3h-2V65z" data-fill-palette-color="accent"></path></g>
                                                            <g fill="#8789fe" data-fill-palette-color="accent"><path fill="#8789fe" d="M14.5 73h-3c-0.276 0-0.5-0.224-0.5-0.5v-4c0-0.276 0.224-0.5 0.5-0.5h3c0.276 0 0.5 0.224 0.5 0.5v4C15 72.776 14.776 73 14.5 73zM12 72h2v-3h-2V72z" data-fill-palette-color="accent"></path></g>
                                                            <g fill="#8789fe" data-fill-palette-color="accent"><path fill="#8789fe" d="M79 36h-4c-0.276 0-0.5-0.224-0.5-0.5S74.724 35 75 35h4c0.276 0 0.5 0.224 0.5 0.5S79.276 36 79 36z" data-fill-palette-color="accent"></path></g>
                                                            <g fill="#8789fe" data-fill-palette-color="accent"><path fill="#8789fe" d="M93 82H8c-0.552 0-1-0.447-1-1V30c0-0.552 0.448-1 1-1h85c0.553 0 1 0.448 1 1v51C94 81.553 93.553 82 93 82zM9 80h83V31H9V80z" data-fill-palette-color="accent"></path></g>
                                                            <g fill="#8789fe" data-fill-palette-color="accent"><path fill="#8789fe" d="M93 31c-0.553 0-1-0.448-1-1v-5c0-1.178-0.852-2-2.071-2H11.321C10.042 23 9 23.897 9 25v5c0 0.552-0.448 1-1 1s-1-0.448-1-1v-5c0-2.206 1.938-4 4.321-4h78.607C92.25 21 94 22.72 94 25v5C94 30.552 93.553 31 93 31z" data-fill-palette-color="accent"></path></g>
                                                            <g fill="#8789fe" data-fill-palette-color="accent"><path fill="#8789fe" d="M32 40h-8c-0.276 0-0.5-0.224-0.5-0.5S23.724 39 24 39h8c0.276 0 0.5 0.224 0.5 0.5S32.276 40 32 40z" data-fill-palette-color="accent"></path></g>
                                                            <g fill="#8789fe" data-fill-palette-color="accent"><path fill="#8789fe" d="M38 77h-7c-0.276 0-0.5-0.224-0.5-0.5S30.724 76 31 76h7c0.276 0 0.5 0.224 0.5 0.5S38.276 77 38 77z" data-fill-palette-color="accent"></path></g>
                                                            <g fill="#8789fe" data-fill-palette-color="accent"><path fill="#8789fe" d="M41 74H31c-0.276 0-0.5-0.224-0.5-0.5S30.724 73 31 73h10c0.276 0 0.5 0.224 0.5 0.5S41.276 74 41 74z" data-fill-palette-color="accent"></path></g>
                                                            <g fill="#8789fe" data-fill-palette-color="accent"><path fill="#8789fe" d="M48.5 78h-4c-0.276 0-0.5-0.224-0.5-0.5v-5c0-0.276 0.224-0.5 0.5-0.5h4c0.276 0 0.5 0.224 0.5 0.5v5C49 77.776 48.776 78 48.5 78zM45 77h3v-4h-3V77z" data-fill-palette-color="accent"></path></g>
                                                            <g fill="#8789fe" data-fill-palette-color="accent"><path fill="#8789fe" d="M58 77h-7c-0.276 0-0.5-0.224-0.5-0.5S50.724 76 51 76h7c0.276 0 0.5 0.224 0.5 0.5S58.276 77 58 77z" data-fill-palette-color="accent"></path></g>
                                                            <g fill="#8789fe" data-fill-palette-color="accent"><path fill="#8789fe" d="M61 74H51c-0.276 0-0.5-0.224-0.5-0.5S50.724 73 51 73h10c0.276 0 0.5 0.224 0.5 0.5S61.276 74 61 74z" data-fill-palette-color="accent"></path></g>
                                                            <g fill="#8789fe" data-fill-palette-color="accent"><path fill="#8789fe" d="M70.5 78h-4c-0.276 0-0.5-0.224-0.5-0.5v-5c0-0.276 0.224-0.5 0.5-0.5h4c0.276 0 0.5 0.224 0.5 0.5v5C71 77.776 70.776 78 70.5 78zM67 77h3v-4h-3V77z" data-fill-palette-color="accent"></path></g>
                                                            <g fill="#8789fe" data-fill-palette-color="accent"><path fill="#8789fe" d="M80 77h-7c-0.276 0-0.5-0.224-0.5-0.5S72.724 76 73 76h7c0.276 0 0.5 0.224 0.5 0.5S80.276 77 80 77z" data-fill-palette-color="accent"></path></g>
                                                            <g fill="#8789fe" data-fill-palette-color="accent"><path fill="#8789fe" d="M83 74H73c-0.276 0-0.5-0.224-0.5-0.5S72.724 73 73 73h10c0.276 0 0.5 0.224 0.5 0.5S83.276 74 83 74z" data-fill-palette-color="accent"></path></g>
                                                            <g fill="#8789fe" data-fill-palette-color="accent"><path fill="#8789fe" d="M35 37H24c-0.552 0-1-0.448-1-1s0.448-1 1-1h11c0.552 0 1 0.448 1 1S35.552 37 35 37z" data-fill-palette-color="accent"></path></g>
                                                            <g fill="#8789fe" data-fill-palette-color="accent"><circle fill="#8789fe" cx="13.525" cy="26.025" r="1.3" data-fill-palette-color="accent"></circle></g>
                                                            <g fill="#8789fe" data-fill-palette-color="accent"><circle fill="#8789fe" cx="17.625" cy="26.025" r="1.3" data-fill-palette-color="accent"></circle></g>
                                                            <g fill="#8789fe" data-fill-palette-color="accent"><circle fill="#8789fe" cx="21.725" cy="26.025" r="1.3" data-fill-palette-color="accent"></circle></g>
                                                            <g fill="#8789fe" data-fill-palette-color="accent"><circle fill="#8789fe" cx="72.75" cy="35.75" r="1.0" data-fill-palette-color="accent"></circle></g>
                                                            <g fill="#8789fe" data-fill-palette-color="accent"><path fill="#8789fe" d="M62 42h-4c-0.276 0-0.5-0.224-0.5-0.5S57.724 41 58 41h4c0.276 0 0.5 0.224 0.5 0.5S62.276 42 62 42z" data-fill-palette-color="accent"></path></g>
                                                            <g fill="#8789fe" data-fill-palette-color="accent"><circle fill="#8789fe" cx="55.75" cy="41.75" r="1.0" data-fill-palette-color="accent"></circle></g>
                                                            <g fill="#8789fe" data-fill-palette-color="accent"><path fill="#8789fe" d="M76 59h-4c-0.276 0-0.5-0.224-0.5-0.5S71.724 58 72 58h4c0.276 0 0.5 0.224 0.5 0.5S76.276 59 76 59z" data-fill-palette-color="accent"></path></g>
                                                            <g fill="#8789fe" data-fill-palette-color="accent"><circle fill="#8789fe" cx="69.75" cy="58.75" r="1.0" data-fill-palette-color="accent"></circle></g>
                                                            <g fill="#8789fe" data-fill-palette-color="accent"><path fill="#8789fe" d="M47 50h-4c-0.276 0-0.5-0.224-0.5-0.5S42.724 49 43 49h4c0.276 0 0.5 0.224 0.5 0.5S47.276 50 47 50z" data-fill-palette-color="accent"></path></g>
                                                            <g fill="#8789fe" data-fill-palette-color="accent"><circle fill="#8789fe" cx="40.75" cy="49.75" r="1.0" data-fill-palette-color="accent"></circle></g>
                                                            <g fill="#8789fe" data-fill-palette-color="accent"><path fill="#8789fe" d="M56 66h-4c-0.276 0-0.5-0.224-0.5-0.5S51.724 65 52 65h4c0.276 0 0.5 0.224 0.5 0.5S56.276 66 56 66z" data-fill-palette-color="accent"></path></g>
                                                            <g fill="#8789fe" data-fill-palette-color="accent"><circle fill="#8789fe" cx="49.75" cy="65.75" r="1.0" data-fill-palette-color="accent"></circle></g>
                                                            <g fill="#8789fe" data-fill-palette-color="accent"><path fill="#8789fe" d="M17.5 81.5c-0.276 0-0.5-0.224-0.5-0.5V31c0-0.276 0.224-0.5 0.5-0.5S18 30.724 18 31v50C18 81.276 17.776 81.5 17.5 81.5z" data-fill-palette-color="accent"></path></g>
                                                            <g fill="#8789fe" data-fill-palette-color="accent"><path fill="#8789fe" d="M65.396 55.948c-0.075 0-0.152-0.017-0.224-0.053-0.247-0.124-0.347-0.424-0.224-0.671l5.567-11.118c0.124-0.247 0.427-0.345 0.671-0.223 0.247 0.124 0.347 0.424 0.224 0.671l-5.567 11.117C65.755 55.848 65.578 55.948 65.396 55.948z" data-fill-palette-color="accent"></path></g>
                                                            <g fill="#8789fe" data-fill-palette-color="accent"><path fill="#8789fe" d="M61.778 56.412c-0.148 0-0.295-0.065-0.394-0.191l-4.755-6.072c-0.17-0.217-0.132-0.531 0.085-0.702 0.218-0.17 0.532-0.132 0.702 0.085l4.755 6.071c0.17 0.218 0.132 0.532-0.085 0.702C61.995 56.377 61.887 56.412 61.778 56.412z" data-fill-palette-color="accent"></path></g>
                                                            <g fill="#8789fe" data-fill-palette-color="accent"><path fill="#8789fe" d="M49.54 58.744c-0.072 0-0.146-0.016-0.215-0.049-0.249-0.119-0.354-0.418-0.235-0.667l4.003-8.365c0.119-0.249 0.418-0.354 0.667-0.235s0.354 0.418 0.235 0.667l-4.003 8.365C49.906 58.64 49.727 58.744 49.54 58.744z" data-fill-palette-color="accent"></path></g>
                                                            <g fill="#8789fe" data-fill-palette-color="accent"><path fill="#8789fe" d="M45.801 59.559c-0.113 0-0.226-0.038-0.32-0.116l-2.803-2.336c-0.212-0.177-0.241-0.492-0.064-0.704 0.177-0.211 0.492-0.241 0.705-0.063l2.803 2.336c0.212 0.177 0.241 0.492 0.064 0.704C46.086 59.497 45.944 59.559 45.801 59.559z" data-fill-palette-color="accent"></path></g>
                                                            <g fill="#8789fe" data-fill-palette-color="accent"><path fill="#8789fe" d="M31 63.865c-0.138 0-0.274-0.057-0.373-0.167-0.184-0.206-0.166-0.522 0.041-0.706l7.708-6.869c0.205-0.185 0.522-0.166 0.706 0.04 0.184 0.206 0.166 0.522-0.041 0.706l-7.708 6.869C31.237 63.823 31.119 63.865 31 63.865z" data-fill-palette-color="accent"></path></g>
                                                            <g fill="#8789fe" data-fill-palette-color="accent"><path fill="#8789fe" d="M55.255 50.983c-1.801 0-3.266-1.465-3.266-3.266s1.465-3.266 3.266-3.266 3.267 1.465 3.267 3.266S57.056 50.983 55.255 50.983zM55.255 45.451c-1.249 0-2.266 1.017-2.266 2.266s1.017 2.266 2.266 2.266c1.25 0 2.267-1.016 2.267-2.266S56.505 45.451 55.255 45.451z" data-fill-palette-color="accent"></path></g>
                                                            <g fill="#8789fe" data-fill-palette-color="accent"><path fill="#8789fe" d="M40.942 58.14c-1.801 0-3.266-1.465-3.266-3.266s1.465-3.267 3.266-3.267 3.266 1.466 3.266 3.267S42.743 58.14 40.942 58.14zM40.942 52.607c-1.25 0-2.266 1.017-2.266 2.267 0 1.249 1.016 2.266 2.266 2.266s2.266-1.017 2.266-2.266C43.208 53.624 42.191 52.607 40.942 52.607z" data-fill-palette-color="accent"></path></g>
                                                            <g fill="#8789fe" data-fill-palette-color="accent"><path fill="#8789fe" d="M63.843 61.002c-1.801 0-3.266-1.465-3.266-3.266s1.465-3.266 3.266-3.266 3.267 1.465 3.267 3.266S65.644 61.002 63.843 61.002zM63.843 55.471c-1.249 0-2.266 1.017-2.266 2.266s1.017 2.266 2.266 2.266c1.25 0 2.267-1.017 2.267-2.266S65.093 55.471 63.843 55.471z" data-fill-palette-color="accent"></path></g>
                                                            <g fill="#8789fe" data-fill-palette-color="accent"><path fill="#8789fe" d="M48.099 63.865c-1.801 0-3.266-1.466-3.266-3.267s1.465-3.266 3.266-3.266 3.266 1.465 3.266 3.266S49.899 63.865 48.099 63.865zM48.099 58.333c-1.25 0-2.266 1.017-2.266 2.266 0 1.25 1.016 2.267 2.266 2.267s2.266-1.017 2.266-2.267C50.365 59.35 49.348 58.333 48.099 58.333z" data-fill-palette-color="accent"></path></g>
                                                            <g fill="#8789fe" data-fill-palette-color="accent"><path fill="#8789fe" d="M72.431 45.258c-1.801 0-3.266-1.465-3.266-3.266s1.465-3.266 3.266-3.266 3.267 1.465 3.267 3.266S74.231 45.258 72.431 45.258zM72.431 39.726c-1.249 0-2.266 1.016-2.266 2.266s1.017 2.266 2.266 2.266c1.25 0 2.267-1.017 2.267-2.266S73.681 39.726 72.431 39.726z" data-fill-palette-color="accent"></path></g>
                                                            <g fill="#8789fe" data-fill-palette-color="accent"><path fill="#8789fe" stroke="#8789FE" stroke-linecap="round" stroke-linejoin="round" stroke-miterlimit="10" d="M57.017 49.833" data-fill-palette-color="accent"></path></g>
                                                            <g fill="#8789fe" data-fill-palette-color="accent"><path fill="#8789fe" stroke="#8789FE" stroke-linecap="round" stroke-linejoin="round" stroke-miterlimit="10" d="M53.544 49.879" data-fill-palette-color="accent"></path></g></svg>
                                                    </g>
                                                </svg>
                                            </g>
                                        </svg>
                                    </g>
                                </svg>
                            </g>
                            <g>
                                <path d="M151.089 167.235A122.216 122.216 0 1 0 151.089 79.965L155.204 79.965A118.101 118.101 0 1 1 155.204 167.235L151.089 167.235"
                                      fill="#8789fe" stroke="transparent" data-fill-palette-color="tertiary"></path>
                            </g>
                        </svg>
                    </g>
                </svg>
                <rect width="395.52" height="247.2" fill="none" stroke="none" visibility="hidden"></rect>
            </g>
        </svg>
    </g>
</svg>